<?xml version="1.0" encoding="utf-8"?>
<!-- Generator: Adobe Illustrator 25.0.1, SVG Export Plug-In . SVG Version: 6.00 Build 0)  -->
<svg version="1.1" id="Layer_1" xmlns="http://www.w3.org/2000/svg" xmlns:xlink="http://www.w3.org/1999/xlink" x="0px" y="0px"
	 viewBox="0 0 60 60" style="enable-background:new 0 0 60 60;" xml:space="preserve">
<style type="text/css">
	.st0{fill:#B1B1B1;}
	.st1{opacity:0.15;}
	.st2{opacity:0.1;fill:#B1B1B1;}
	.st3{fill:#575756;}
	.st4{opacity:0.8;}
	.st5{fill:#9D9D9C;}
	.st6{fill:#FABCA8;}
	.st7{fill:#FAC1B5;}
	.st8{fill:#07294D;}
	.st9{fill:#F3C700;}
	.st10{opacity:0.3;}
	.st11{opacity:0.34;}
	.st12{fill:#008FD1;}
	.st13{fill:#C6A000;}
	.st14{fill:none;stroke:#07294D;stroke-width:0.8117;stroke-linecap:round;stroke-linejoin:round;stroke-miterlimit:10;}
	.st15{fill:none;stroke:#C6A000;stroke-width:0.8117;stroke-miterlimit:10;}
	.st16{fill:none;stroke:#C6A000;stroke-width:0.5411;stroke-linejoin:round;stroke-miterlimit:10;}
	.st17{fill:#FFFFFF;}
</style>
<g id="Layer_3">
</g>
<g id="Layer_1_1_">
	<g>
		<g>
			<g>
				<g>
					<g>
						<polygon class="st0" points="56.8,15.3 30,1.6 3.3,15.3 3.3,44.7 30,58.4 56.8,44.7 						"/>
					</g>
					<polygon points="56.7,15.3 30,1.6 3.2,15.3 3.2,44.7 30,58.4 56.7,44.7 					"/>
					<g class="st1">
						<polygon class="st0" points="3.3,15.3 16.9,22.3 30,15.6 30,1.6 						"/>
						<polygon class="st0" points="56.8,15.3 43.1,22.3 30,15.6 30,1.6 						"/>
					</g>
					<g class="st1">
						<polygon class="st0" points="56.8,44.7 43.1,37.7 30,44.4 30,58.4 						"/>
						<polygon class="st0" points="3.3,44.7 16.9,37.7 30,44.4 30,58.4 						"/>
					</g>
					<polygon class="st2" points="3.3,15.3 3.3,44.7 13.3,39.8 13.3,20.2 					"/>
				</g>
			</g>
			<g>
				<path id="XMLID_183_" class="st3" d="M21.4,49v-7.5v-0.2c-0.3-4.6-8.1-5-8.1-5l-5.2,0.1c0,0-7.7,1.1-7.7,5.3s-0.1,7.5-0.1,7.5
					l0,0L21.4,49z"/>
				<g class="st4">
					<path class="st5" d="M11,36.4l-0.5,0.4c-0.7-0.1,0-0.3,0-0.3l-2.4-0.2c0,0-7.7,1.1-7.7,5.3s-0.1,7.5-0.1,7.5h2.9
						c0-0.6,0.1-3.6,0.1-7.3C3.3,37.6,11,36.4,11,36.4z"/>
				</g>
				<path id="XMLID_182_" class="st6" d="M12.4,32.8v4.4c0,0.9-0.9,0.4-2,0.4h-0.1c-1.1,0-1.9,0.3-1.9-0.6v-4.2"/>
				<path class="st6" d="M16,26.7c0.7,0.1,1.2,1,1,2s-0.9,1.7-1.6,1.5"/>
				<path class="st6" d="M4.6,27.4c-0.7,0.2-1.1,1.1-0.8,2.1s1.1,1.6,1.8,1.4"/>
				<path id="XMLID_181_" class="st7" d="M16,26.9c0-3.4-2.6-6.1-5.7-6.1s-5.7,2.7-5.7,6.1s2.7,8.2,5.8,8.2S16,30.3,16,26.9z"/>
				<path id="XMLID_180_" class="st8" d="M15.4,21.1C15,21,13.7,19.8,13.7,20c0.2-0.6,0-1-0.5-1.3c-0.1,0.2-0.2,0.4-0.3,0.6
					c-0.3-0.6-0.8-0.6-1.4-0.7c0.1-0.3-0.7,0.2-0.7,0.3c-0.3,0.2-0.8-0.2-0.9,0c-0.1-0.1-0.1-0.3-0.2-0.4c-0.3,0.2-0.5,0.5-0.3,0.8
					c0-0.1-0.4-0.1-0.7,0v0.8c-1.2,0-2.1,0.2-3.2,1C4,22.6,4,25.6,4,28l0.6-0.6l0.5-3h1.3c1.8,0.5,5.3-0.2,6.4-1.7
					c0.5-0.7,2.8,2.1,2.8,1.7c0.1,0.8,0.5,1.5,0.5,2.4l0.5,0.2C16.6,27,17.4,21.9,15.4,21.1z"/>
				<polygon id="XMLID_179_" class="st9" points="7.9,36.3 7.9,39 10.3,37.9 12.7,39 12.7,36.1 10.3,37.4 				"/>
				<path id="XMLID_178_" class="st3" d="M59.7,49v-7.5v-0.2c-0.3-4.6-8.1-5-8.1-5l-5.2,0.1c0,0-7.7,1.1-7.7,5.3s-0.1,7.5-0.1,7.5
					l0,0L59.7,49z"/>
				<g class="st10">
					<path class="st5" d="M49.3,36.4l-0.5,0.4c-0.7-0.1,0-0.3,0-0.3l-2.4-0.2c0,0-7.7,1.1-7.7,5.3s-0.1,7.5-0.1,7.5h2.9
						c0-0.6,0.1-3.6,0.1-7.3C41.6,37.6,49.3,36.4,49.3,36.4z"/>
				</g>
				<path id="XMLID_177_" class="st6" d="M50.7,32.8v4.4c0,0.9-0.9,0.4-2,0.4h-0.1c-1.1,0-1.9,0.3-1.9-0.6v-4.2"/>
				<path class="st6" d="M54.3,26.7c0.7,0.1,1.2,1,1,2s-0.9,1.7-1.6,1.5"/>
				<path class="st6" d="M42.9,27.4c-0.7,0.2-1.1,1.1-0.8,2.1s1.1,1.6,1.8,1.4"/>
				<path id="XMLID_102_" class="st7" d="M54.3,26.9c0-3.4-2.6-6.1-5.7-6.1s-5.7,2.7-5.7,6.1s2.7,8.2,5.8,8.2
					C51.9,35.2,54.3,30.3,54.3,26.9z"/>
				<polygon id="XMLID_101_" class="st9" points="46.2,36.3 46.2,39 48.6,37.9 51,39 51,36.1 48.6,37.4 				"/>
			</g>
			<g>
				<rect x="23.1" y="5" transform="matrix(0.799 -0.6014 0.6014 0.799 0.8527 16.4947)" class="st9" width="4" height="4"/>
			</g>
			<g>
				
					<rect x="18.4" y="16.3" transform="matrix(0.1397 -0.9902 0.9902 0.1397 -0.4969 33.9127)" class="st9" width="1.8" height="1.8"/>
			</g>
			<g class="st11">
				
					<rect x="30.4" y="14.1" transform="matrix(0.1397 -0.9902 0.9902 0.1397 12.1052 43.066)" class="st12" width="0.9" height="0.9"/>
			</g>
			<g>
				
					<rect x="39.4" y="15.2" transform="matrix(0.1397 -0.9902 0.9902 0.1397 18.7816 53.4487)" class="st9" width="1.5" height="1.5"/>
			</g>
			<path id="XMLID_100_" class="st9" d="M42.5,53V39v-0.3c-0.3-5.2-9.3-5.8-9.3-5.8L27.3,33c0,0-8.8,1.3-8.8,6.1s-0.1,14-0.1,14l0,0
				L42.5,53z"/>
			<g>
				<path class="st13" d="M24.5,35.4c0,0,1.3-2.1-0.1-1.6c-2.6,0.8-5.9,2.4-6,5.4c-0.1,4.8-0.1,14-0.1,14l3.5-0.1
					c0-0.3,0.1-9.1,0.1-13.7c0-1.8,1.2-3.1,2.7-4"/>
			</g>
			<polygon id="XMLID_99_" class="st8" points="21.9,22.4 21.9,31.2 28.1,31.2 28.1,21.1 			"/>
			<polygon id="XMLID_98_" class="st8" points="38.9,22.4 38.9,31.2 32.2,31.2 32.2,21.1 			"/>
			<path id="XMLID_97_" class="st6" d="M32.2,29v3.2c0,0.2,0,1.7-0.1,1.9c-0.3,0.8-1.2,0-2.2,0v0.6c-1,0-1.9,0.1-2.2-0.7
				c-0.1-0.2-0.1-1.6-0.1-1.8V29"/>
			<g id="XMLID_94_">
				<g id="XMLID_95_">
					<path id="XMLID_96_" class="st7" d="M23.6,23.6c0-4.2,3-5.6,6.7-5.6s6.7,1.4,6.7,5.6s-3,7.6-6.7,7.6S23.6,27.8,23.6,23.6z"/>
				</g>
			</g>
			<path id="XMLID_90_" class="st8" d="M21.9,22.4c0.1,0,0.3,0,0.6,0c0.8,0,2.2,0.2,3.8,0c2.1-0.2,2.3-2.2,3.5-2.2
				c0.8,0,1.6,2.2,2.4,2.2c3.6,0.3,6.7,0,6.7,0v-0.3c0-4.7-3.8-8.5-8.5-8.5l0,0c-4.7,0-8.5,3.8-8.5,8.5
				C21.9,22.1,21.9,22.4,21.9,22.4z"/>
			<path id="XMLID_89_" class="st14" d="M23.7,22.4c0,0,4.1,0.8,6.1-2.4c0,0,2,3.9,7.2,2.5"/>
			<line class="st15" x1="22" y1="43.5" x2="21.8" y2="53.1"/>
			<line class="st15" x1="37.7" y1="43.5" x2="37.5" y2="53"/>
			<line class="st16" x1="30.4" y1="47.6" x2="30.4" y2="53.1"/>
			<path d="M25.9,33.3c0,0,1.2-0.7,1.6-0.4c0.5,0.3,1.5,1.6,2,1.4c0.5-0.2,2.6-1.3,2.8-1.6s2.2,0,2.2,0.6s-1.2,4.9-1.7,4.9
				c-0.1,0-2.3,6-2.3,6l-1.7-3.4c0,0-2.8-6.1-2.8-6.7C25.9,33.6,25.9,33.3,25.9,33.3z"/>
			<path class="st17" d="M33.8,32.8c0,0,0,2.1-2.9,2.7c0,0-2.7,0.4-3.8-1.2c-0.2-0.3-0.4-0.6-0.4-1l0.1-0.4L26,33.3
				c0,0-0.1,0.9,0.4,2s4.2,9.3,4.2,9.3l3.6-10.2c0-0.1,0-0.2,0-0.3C34.1,33.9,34,33.1,33.8,32.8L33.8,32.8"/>
			<polygon points="30,34.1 28.7,35.3 29.3,36.2 28.5,40.4 30.4,44.8 32.1,40.3 30.7,36.2 31.4,35.3 			"/>
			<path class="st13" d="M33.9,33c0,0,0.3,0.5,0.1,1.6C33.8,35.7,29.9,46,29.9,46v1.6l1-0.1l5.3-7.9l-1.9-1.1l1.8-0.3l-0.5-4.9
				L33.9,33z"/>
			<path class="st13" d="M25.9,33.3c0,0-0.1,0.4,0.1,1.4c0.3,1,4.9,11.1,4.9,11.1v1.8h-1L24.2,40l1.8-1.2l-1.8-0.2l0.1-5L25.9,33.3z
				"/>
			<path id="XMLID_88_" class="st8" d="M42.5,27.7c0-0.4,0-1,0-1.4c0-0.9,0-1.8,0.1-2.7c0-0.4,0.1-0.9,0.2-1.3
				c0.1-0.7,0.4-1.2,0.8-1.7c0.9-1,2.1-1.7,3.5-2c0.6-0.1,1.2-0.1,1.8,0c0.6,0,1.3,0.1,1.9,0.2c0.2,0,0.5,0.1,0.7,0.1
				c0.7,0.2,1.3,0.4,1.9,0.8c0.5,0.3,0.9,0.8,1.2,1.3c0.3,0.6,0.5,1.2,0.5,1.9c0,0.2,0,0.4,0,0.6c0,0.6,0,2.4-0.1,3
				c-0.1,0.5-0.3,0.7-0.9,0.7l-0.5,0.1c0,0-0.2-2.8-0.5-3.3c-7.3,1.3-8.4,0.2-8.4,0.2l-1.1,3.2H43L42.5,27.7z"/>
		</g>
	</g>
</g>
<g id="Layer_2_1_">
</g>
</svg>
